<svg width="16" height="17" viewBox="0 0 16 17" fill="none" xmlns="http://www.w3.org/2000/svg">
<path d="M-7.02515e-05 11.638V8.492H5.67593C6.55593 8.492 7.24526 8.25733 7.74393 7.788C8.25726 7.31867 8.51393 6.666 8.51393 5.83C8.51393 4.994 8.25726 4.34133 7.74393 3.872C7.24526 3.388 6.55593 3.146 5.67593 3.146H0.0219297V-1.3113e-06H6.18193C7.54593 -1.3113e-06 8.71193 0.241999 9.67993 0.726C10.6479 1.21 11.3959 1.892 11.9239 2.772C12.4519 3.63733 12.7159 4.65667 12.7159 5.83C12.7159 7.00333 12.4519 8.02267 11.9239 8.888C11.3959 9.75333 10.6479 10.428 9.67993 10.912C8.71193 11.396 7.54593 11.638 6.18193 11.638H-7.02515e-05ZM9.48193 16.5L2.50793 8.778H7.56793L14.4759 16.5H9.48193ZM0.0219297 6.842V4.796H15.1359V6.842H0.0219297ZM2.63993 2.046V-1.3113e-06H15.1359V2.046H2.63993Z" fill="#FCFCFC"/>
</svg>
