<svg width="24" height="24" viewBox="0 0 24 24" fill="none" xmlns="http://www.w3.org/2000/svg">
<path d="M22.0002 12.6196V14.6796C22.0002 15.2396 21.5402 15.6996 20.9702 15.6996H19.0402C17.9602 15.6996 16.9702 14.9096 16.8802 13.8296C16.8202 13.1996 17.0602 12.6096 17.4802 12.1996C17.8502 11.8196 18.3602 11.5996 18.9202 11.5996H20.9702C21.5402 11.5996 22.0002 12.0596 22.0002 12.6196Z" fill="#FCFCFC"/>
<path d="M15.379 13.9604C15.289 12.9104 15.669 11.8804 16.429 11.1304C17.069 10.4804 17.959 10.1004 18.919 10.1004H19.489C19.769 10.1004 19.999 9.87039 19.959 9.59039C19.689 7.65039 18.009 6.15039 15.999 6.15039H5.99902C3.78902 6.15039 1.99902 7.94039 1.99902 10.1504L1.99902 17.1504C1.99902 19.3604 3.78902 21.1504 5.99902 21.1504H15.999C18.019 21.1504 19.689 19.6504 19.959 17.7104C19.999 17.4304 19.769 17.2004 19.489 17.2004H19.039C17.139 17.2004 15.539 15.7804 15.379 13.9604ZM12.999 11.9004H6.99902C6.58902 11.9004 6.24902 11.5704 6.24902 11.1504C6.24902 10.7304 6.58902 10.4004 6.99902 10.4004H12.999C13.409 10.4004 13.749 10.7404 13.749 11.1504C13.749 11.5604 13.409 11.9004 12.999 11.9004Z" fill="#FCFCFC"/>
<path d="M14.2097 3.97961C14.4697 4.24961 14.2397 4.64961 13.8597 4.64961H6.02966C4.93966 4.64961 3.91966 4.96961 3.06966 5.51961C2.67966 5.76961 2.14966 5.49961 2.33966 5.06961C2.89966 3.75961 4.20966 2.84961 5.71966 2.84961L11.3397 2.84961C12.4997 2.84961 13.5297 3.25961 14.2097 3.97961Z" fill="#FCFCFC"/>
</svg>
